<svg width="36" height="36" viewBox="0 0 36 36" fill="none" xmlns="http://www.w3.org/2000/svg">
<path opacity="0.979" fill-rule="evenodd" clip-rule="evenodd" d="M5.23828 0.527344C13.7227 0.515625 22.2071 0.527344 30.6914 0.5625C33.4565 1.19472 35.0151 2.91738 35.3672 5.73047C35.4141 13.7695 35.4141 21.8086 35.3672 29.8477C34.9571 32.7187 33.3282 34.4179 30.4805 34.9453C22.1133 34.9922 13.7461 34.9922 5.37891 34.9453C3.27311 34.6135 1.78483 33.4768 0.914063 31.5352C0.753209 31.1262 0.636018 30.7043 0.5625 30.2695C0.515625 21.9023 0.515625 13.5352 0.5625 5.16797C1.13435 2.61561 2.69294 1.06874 5.23828 0.527344ZM6.08203 2.77734C14.0039 2.76562 21.9258 2.77734 29.8477 2.8125C31.2633 2.90469 32.2594 3.59609 32.8359 4.88672C32.9496 5.15718 33.0199 5.43843 33.0469 5.73047C33.0938 13.6758 33.0938 21.6211 33.0469 29.5664C32.8345 31.1851 31.9321 32.1813 30.3398 32.5547C22.0664 32.6016 13.793 32.6016 5.51953 32.5547C4.34495 32.2703 3.51292 31.579 3.02344 30.4805C2.89326 30.0932 2.82295 29.6947 2.8125 29.2852C2.76562 21.5508 2.76562 13.8164 2.8125 6.08203C3.04766 4.12426 4.1375 3.02269 6.08203 2.77734Z" fill="#080808"/>
<path opacity="0.969" fill-rule="evenodd" clip-rule="evenodd" d="M17.332 5.66016C21.293 5.64844 25.254 5.66016 29.2148 5.69531C29.5181 5.78716 29.7642 5.96294 29.9531 6.22266C30.0346 10.3465 30.0932 14.4714 30.1289 18.5977C29.9976 19.3435 29.5523 19.6834 28.793 19.6172C28.289 19.4883 27.9726 19.1719 27.8438 18.668C27.8086 15.1055 27.7969 11.5431 27.8086 7.98047C24.2929 7.99221 20.7773 7.98047 17.2617 7.94531C16.713 7.7715 16.4317 7.39652 16.418 6.82031C16.4504 6.21416 16.7551 5.82744 17.332 5.66016Z" fill="#080808"/>
<path opacity="0.969" fill-rule="evenodd" clip-rule="evenodd" d="M6.78516 16.2773C7.47225 16.2732 7.9058 16.6014 8.08594 17.2617C8.1211 20.8476 8.13284 24.4335 8.1211 28.0195C11.6368 28.0078 15.1524 28.0195 18.668 28.0547C19.4543 28.4449 19.6535 29.0426 19.2656 29.8476C19.0779 30.041 18.8553 30.1699 18.5977 30.2344C14.6133 30.2812 10.6289 30.2812 6.64453 30.2344C6.26411 30.1118 5.99459 29.8657 5.83594 29.4961C5.78906 25.3476 5.78906 21.1992 5.83594 17.0508C6.01986 16.6199 6.33626 16.3621 6.78516 16.2773Z" fill="#080808"/>
</svg>
