<svg width="30" height="34" viewBox="0 0 30 34" fill="none" xmlns="http://www.w3.org/2000/svg">
<path opacity="0.939" fill-rule="evenodd" clip-rule="evenodd" d="M13.9746 0.642519C17.4811 0.400107 19.8737 1.8975 21.1524 5.13471C21.4351 6.28891 21.549 7.46078 21.4942 8.65033C23.0244 8.63402 24.5544 8.65033 26.084 8.69916C26.3014 8.81898 26.4479 8.99809 26.5235 9.23627C27.4675 16.3652 28.4114 23.4941 29.3555 30.623C29.4206 31.0461 29.4206 31.4694 29.3555 31.8925C28.9129 32.3678 28.4408 32.8073 27.9395 33.2109C19.2806 33.276 10.6218 33.276 1.96292 33.2109C1.46155 32.8073 0.989478 32.3678 0.546899 31.8925C0.481763 31.4694 0.481763 31.0461 0.546899 30.623C1.48293 23.493 2.42688 16.3641 3.37893 9.23627C3.44583 8.98656 3.59231 8.80746 3.81838 8.69916C5.34797 8.65033 6.87795 8.63402 8.40823 8.65033C8.07083 4.40561 9.92629 1.73638 13.9746 0.642519ZM14.0723 2.30268C16.9234 2.08021 18.7951 3.31723 19.6875 6.01361C19.8152 6.88744 19.864 7.76635 19.834 8.65033C16.5788 8.65033 13.3236 8.65033 10.0684 8.65033C10.1325 7.87094 10.1814 7.08969 10.2149 6.30658C10.6934 4.18432 11.9792 2.84975 14.0723 2.30268ZM4.8926 10.3105C11.5984 10.3105 18.304 10.3105 25.0098 10.3105C25.9215 17.2787 26.8167 24.2449 27.6953 31.2089C27.5814 31.3229 27.4675 31.4368 27.3535 31.5507C19.0853 31.6159 10.8171 31.6159 2.54885 31.5507C2.43489 31.4368 2.32102 31.3229 2.20706 31.2089C3.07874 24.244 3.97395 17.2779 4.8926 10.3105Z" fill="black"/>
</svg>
